<svg width="65" height="43" viewBox="0 0 65 43" fill="none" xmlns="http://www.w3.org/2000/svg">
<circle cx="43" cy="21.5" r="21.5" fill="white"/>
<path d="M21.5 0C18.6766 -3.3669e-08 15.8808 0.556114 13.2723 1.63659C10.6638 2.71707 8.29366 4.30074 6.2972 6.2972C4.30074 8.29366 2.71707 10.6638 1.63659 13.2723C0.556114 15.8808 -8.97467e-08 18.6766 0 21.5C8.97467e-08 24.3234 0.556114 27.1192 1.63659 29.7277C2.71707 32.3362 4.30075 34.7063 6.2972 36.7028C8.29366 38.6993 10.6638 40.2829 13.2723 41.3634C15.8808 42.4439 18.6766 43 21.5 43L21.5 21.5V0Z" fill="white" fill-opacity="0.5"/>
</svg>
