<svg width="59" height="40" viewBox="0 0 59 40" fill="none" xmlns="http://www.w3.org/2000/svg">
<g id="Group 1065">
<path id="Vector" d="M27.3333 30.9987C28.622 30.9987 29.6666 29.954 29.6666 28.6653C29.6666 27.3767 28.622 26.332 27.3333 26.332C26.0447 26.332 25 27.3767 25 28.6653C25 29.954 26.0447 30.9987 27.3333 30.9987Z" fill="white"/>
<path id="Vector_2" d="M41.3333 30.9987C42.622 30.9987 43.6666 29.954 43.6666 28.6653C43.6666 27.3767 42.622 26.332 41.3333 26.332C40.0447 26.332 39 27.3767 39 28.6653C39 29.954 40.0447 30.9987 41.3333 30.9987Z" fill="white"/>
<path id="Vector_3" d="M34.3333 21.6666C35.622 21.6666 36.6666 20.622 36.6666 19.3333C36.6666 18.0447 35.622 17 34.3333 17C33.0447 17 32 18.0447 32 19.3333C32 20.622 33.0447 21.6666 34.3333 21.6666Z" fill="white"/>
<path id="Vector_4" d="M2.66667 40H56C56.3502 40.0001 56.697 39.9312 57.0206 39.7972C57.3442 39.6632 57.6382 39.4668 57.8858 39.2192C58.1335 38.9715 58.3299 38.6775 58.4639 38.3539C58.5979 38.0304 58.6668 37.6836 58.6667 37.3333C58.6565 30.0196 55.9172 22.9729 50.985 17.5725C46.0528 12.1721 39.2828 8.80676 32 8.13509V2.66667C32 1.95942 31.7191 1.28115 31.219 0.781049C30.7189 0.280952 30.0406 0 29.3333 0C28.6261 0 27.9478 0.280952 27.4477 0.781049C26.9476 1.28115 26.6667 1.95942 26.6667 2.66667V8.13509C19.3838 8.80676 12.6138 12.1721 7.68165 17.5725C2.74947 22.9729 0.0102137 30.0196 9.01857e-08 37.3333C-9.10018e-05 37.6836 0.0688244 38.0304 0.202805 38.3539C0.336785 38.6775 0.533202 38.9715 0.780843 39.2192C1.02848 39.4668 1.32249 39.6632 1.64607 39.7972C1.96964 39.9312 2.31645 40.0001 2.66667 40ZM29.3333 13.3333C35.2347 13.3406 40.9272 15.5189 45.3259 19.4532C49.7245 23.3875 52.5219 28.8026 53.1849 34.6667H5.48176C6.14475 28.8026 8.94213 23.3875 13.3408 19.4532C17.7395 15.5189 23.4319 13.3406 29.3333 13.3333Z" fill="white"/>
</g>
</svg>
